REM DIRINDEX 1\2,1\3,1\4,1\5
REM DIRNAME cjc093,folder01,folder02,folder03,folder04
TITLE ""
FILE "Round-10-238-239.mp3" MP3
  TRACK 01 AUDIO
    TITLE "0:"
    INDEX 01 00:00:00
  TRACK 02 AUDIO
    TITLE "2:cjc093_2686"
    INDEX 01 00:00:01
  TRACK 03 AUDIO
    TITLE "0:"
    INDEX 01 00:01:30
  TRACK 04 AUDIO
    TITLE "3:cjc093_2687"
    INDEX 01 00:01:62
  TRACK 05 AUDIO
    TITLE "0:"
    INDEX 01 00:03:45
  TRACK 06 AUDIO
    TITLE "4:cjc093_2688"
    INDEX 01 00:03:72
  TRACK 07 AUDIO
    TITLE "0:"
    INDEX 01 00:07:19
  TRACK 08 AUDIO
    TITLE "2:cjc093_2689"
    INDEX 01 00:08:30
  TRACK 09 AUDIO
    TITLE "0:"
    INDEX 01 00:09:24
  TRACK 10 AUDIO
    TITLE "3:cjc093_2690"
    INDEX 01 00:09:69
  TRACK 11 AUDIO
    TITLE "0:"
    INDEX 01 00:12:05
  TRACK 12 AUDIO
    TITLE "4:cjc093_2691"
    INDEX 01 00:12:20
  TRACK 13 AUDIO
    TITLE "0:"
    INDEX 01 00:15:44
  TRACK 14 AUDIO
    TITLE "3:cjc093_2692"
    INDEX 01 00:16:55
  TRACK 15 AUDIO
    TITLE "0:"
    INDEX 01 00:17:65
  TRACK 16 AUDIO
    TITLE "4:cjc093_2693"
    INDEX 01 00:18:37
  TRACK 17 AUDIO
    TITLE "0:"
    INDEX 01 00:20:69
  TRACK 18 AUDIO
    TITLE "2:cjc093_2694"
    INDEX 01 00:22:05
  TRACK 19 AUDIO
    TITLE "0:"
    INDEX 01 00:23:16
  TRACK 20 AUDIO
    TITLE "3:cjc093_2695"
    INDEX 01 00:23:46
  TRACK 21 AUDIO
    TITLE "0:"
    INDEX 01 00:24:65
  TRACK 22 AUDIO
    TITLE "4:cjc093_2696"
    INDEX 01 00:25:23
  TRACK 23 AUDIO
    TITLE "0:"
    INDEX 01 00:28:25
  TRACK 24 AUDIO
    TITLE "3:cjc093_2697"
    INDEX 01 00:29:38
  TRACK 25 AUDIO
    TITLE "0:"
    INDEX 01 00:30:61
  TRACK 26 AUDIO
    TITLE "4:cjc093_2698"
    INDEX 01 00:31:04
  TRACK 27 AUDIO
    TITLE "0:"
    INDEX 01 00:34:49
  TRACK 28 AUDIO
    TITLE "2:cjc093_2699"
    INDEX 01 00:35:57
  TRACK 29 AUDIO
    TITLE "0:"
    INDEX 01 00:36:62
  TRACK 30 AUDIO
    TITLE "3:cjc093_2700"
    INDEX 01 00:37:08
  TRACK 31 AUDIO
    TITLE "0:"
    INDEX 01 00:38:30
  TRACK 32 AUDIO
    TITLE "4:cjc093_2701"
    INDEX 01 00:38:67
  TRACK 33 AUDIO
    TITLE "0:"
    INDEX 01 00:42:33
  TRACK 34 AUDIO
    TITLE "2:cjc093_2702"
    INDEX 01 00:43:44
  TRACK 35 AUDIO
    TITLE "0:"
    INDEX 01 00:44:71
  TRACK 36 AUDIO
    TITLE "3:cjc093_2703"
    INDEX 01 00:45:33
  TRACK 37 AUDIO
    TITLE "0:"
    INDEX 01 00:47:17
  TRACK 38 AUDIO
    TITLE "4:cjc093_2704"
    INDEX 01 00:47:40
  TRACK 39 AUDIO
    TITLE "0:"
    INDEX 01 00:53:17
  TRACK 40 AUDIO
    TITLE "2:cjc093_2705"
    INDEX 01 00:54:29
  TRACK 41 AUDIO
    TITLE "0:"
    INDEX 01 00:55:32
  TRACK 42 AUDIO
    TITLE "3:cjc093_2706"
    INDEX 01 00:55:73
  TRACK 43 AUDIO
    TITLE "0:"
    INDEX 01 00:58:15
  TRACK 44 AUDIO
    TITLE "4:cjc093_2707"
    INDEX 01 00:58:36
  TRACK 45 AUDIO
    TITLE "0:"
    INDEX 01 01:01:34
  TRACK 46 AUDIO
    TITLE "3:cjc093_2708"
    INDEX 01 01:02:44
  TRACK 47 AUDIO
    TITLE "0:"
    INDEX 01 01:03:51
  TRACK 48 AUDIO
    TITLE "4:cjc093_2709"
    INDEX 01 01:04:09
  TRACK 49 AUDIO
    TITLE "0:"
    INDEX 01 01:08:09
  TRACK 50 AUDIO
    TITLE "2:cjc093_2710"
    INDEX 01 01:09:20
  TRACK 51 AUDIO
    TITLE "0:"
    INDEX 01 01:10:12
  TRACK 52 AUDIO
    TITLE "3:cjc093_2711"
    INDEX 01 01:10:59
  TRACK 53 AUDIO
    TITLE "0:"
    INDEX 01 01:12:60
  TRACK 54 AUDIO
    TITLE "4:cjc093_2712"
    INDEX 01 01:13:16
  TRACK 55 AUDIO
    TITLE "0:"
    INDEX 01 01:16:11
  TRACK 56 AUDIO
    TITLE "3:cjc093_2713"
    INDEX 01 01:17:24
  TRACK 57 AUDIO
    TITLE "0:"
    INDEX 01 01:18:31
  TRACK 58 AUDIO
    TITLE "4:cjc093_2714"
    INDEX 01 01:18:62
  TRACK 59 AUDIO
    TITLE "0:"
    INDEX 01 01:21:70
